<svg width="10" height="20" viewBox="0 0 15 20" fill="none" xmlns="http://www.w3.org/2000/svg">
<path d="M1.41907 19.8736C1.08809 19.8742 0.767322 19.7589 0.512462 19.5477C0.369021 19.4288 0.250451 19.2828 0.163541 19.118C0.0766308 18.9531 0.0230893 18.7728 0.00598283 18.5873C-0.0111236 18.4017 0.00854139 18.2146 0.0638511 18.0367C0.119161 17.8588 0.209027 17.6935 0.328306 17.5504L6.67459 9.95749L0.554961 2.35045C0.437291 2.20555 0.349418 2.03882 0.296393 1.85985C0.243368 1.68088 0.226236 1.4932 0.245982 1.30758C0.265728 1.12197 0.321962 0.94209 0.411452 0.778282C0.500943 0.614473 0.621927 0.469965 0.767447 0.353065C0.914015 0.224104 1.08566 0.126831 1.2716 0.0673504C1.45754 0.00786948 1.65378 -0.0125345 1.84798 0.00741786C2.04218 0.0273703 2.23017 0.0872488 2.40013 0.183296C2.5701 0.279342 2.71837 0.409484 2.83566 0.565552L9.67775 9.06504C9.8861 9.31851 10 9.63646 10 9.96457C10 10.2927 9.8861 10.6106 9.67775 10.8641L2.59484 19.3636C2.45273 19.535 2.27221 19.6705 2.06793 19.7591C1.86364 19.8477 1.64135 19.8869 1.41907 19.8736Z" fill="white"/>
</svg>
