<svg width="28" height="28" viewBox="0 0 28 28" fill="none" xmlns="http://www.w3.org/2000/svg">
<path d="M15.75 8.75H17.5V10.5H15.75V8.75Z" fill="black"/>
<path d="M10.5 8.75H12.25V10.5H10.5V8.75Z" fill="black"/>
<path d="M22.75 17.5H18.375V15.75H19.25C19.714 15.7495 20.1588 15.565 20.4869 15.2369C20.815 14.9088 20.9995 14.464 21 14V10.5H22.75V8.75H21V7C20.9995 6.53601 20.815 6.09116 20.4869 5.76307C20.1588 5.43499 19.714 5.25046 19.25 5.25H17.5V1.75H15.75V5.25H12.25V1.75H10.5V5.25H8.75C8.28601 5.25046 7.84116 5.43499 7.51307 5.76307C7.18499 6.09116 7.00046 6.53601 7 7V8.75H5.25V10.5H7V14C7.00046 14.464 7.18499 14.9088 7.51307 15.2369C7.84116 15.565 8.28601 15.7495 8.75 15.75H9.625V17.5H5.25C4.78601 17.5005 4.34116 17.685 4.01307 18.0131C3.68499 18.3412 3.50046 18.786 3.5 19.25V26.25H5.25V19.25H22.75V26.25H24.5V19.25C24.4995 18.786 24.315 18.3412 23.9869 18.0131C23.6588 17.685 23.214 17.5005 22.75 17.5V17.5ZM8.75 7H19.25V14H8.75V7ZM11.375 15.75H16.625V17.5H11.375V15.75Z" fill="black"/>
</svg>
