<svg width="51" height="51" viewBox="0 0 51 51" fill="none" xmlns="http://www.w3.org/2000/svg">
<g clip-path="url(#clip0)">
<path d="M20.781 8.88087L8.08039 17.7042L7.35039 18.2313L12.3568 37.1605L13.1066 37.3346L28.6975 41.1629L29.3603 41.3189L29.8594 40.8556L41.519 29.82L42.0847 29.2979L37.0779 10.3675L36.1834 10.2727L20.781 8.88087ZM21.4769 11.5118L32.8439 12.5237L23.719 19.9892L12.0964 18.0111L21.4769 11.5118ZM22.1118 13.9123C20.743 14.2743 19.7819 15.1249 19.962 15.8062C20.1422 16.4874 21.3982 16.7516 22.767 16.3896C24.1357 16.0276 25.0969 15.177 24.9167 14.4958C24.7365 13.8145 23.4805 13.5503 22.1118 13.9123ZM10.5543 20.3234L23.0435 22.446L27.2001 38.1621L14.4446 35.0325L10.5543 20.3234ZM35.3275 13.7713L39.2178 28.4804L29.6775 37.5069L25.5205 21.7896L35.3275 13.7713ZM20.2629 23.6784C19.8046 23.7996 19.5667 24.3331 19.737 24.9772C19.9559 25.8046 20.6223 26.5454 21.3634 26.7417C21.5709 26.7849 21.7804 26.7149 21.9649 26.6661C22.2399 26.5934 22.3768 26.4644 22.5125 26.2311C22.5557 26.0235 22.5878 25.734 22.4908 25.3674C22.272 24.54 21.4879 23.8302 20.7481 23.6336C20.5402 23.5892 20.4475 23.6296 20.2629 23.6784V23.6784ZM29.7256 22.501C29.6238 22.5536 29.5299 22.6204 29.4468 22.6993C28.7767 23.2225 28.4218 24.4614 28.6777 25.4288C28.7635 25.7533 28.8206 26.0695 29.0975 26.2295C29.3716 26.389 29.6389 26.4574 29.9634 26.3716C30.1802 26.3143 30.4009 26.2466 30.5895 26.0828C31.231 25.4519 31.4917 24.3227 31.2637 23.4606C31.0638 22.705 30.6063 22.2681 29.9585 22.4394C29.9052 22.4535 29.8134 22.4619 29.7256 22.501V22.501ZM17.8751 27.333C17.4156 27.4545 17.1792 27.9889 17.3492 28.6317C17.5681 29.4591 18.224 30.1604 18.9654 30.3579C19.173 30.4011 19.3542 30.3796 19.5375 30.3312C19.8137 30.2581 19.989 30.119 20.1235 29.8859C20.1679 29.678 20.1902 29.3514 20.0929 28.9835C19.8741 28.1561 19.1004 27.486 18.3603 27.2882C18.1527 27.245 18.0585 27.2845 17.8751 27.333ZM34.8596 24.3742C34.7716 24.4121 34.6627 24.4515 34.5703 24.5329C33.9005 25.0573 33.5555 26.3334 33.8117 27.302C33.8972 27.6253 33.994 27.931 34.2696 28.0914C34.5453 28.2517 34.7628 28.2923 35.0861 28.2068C35.3041 28.1491 35.5346 28.1186 35.7244 27.9545C36.3663 27.3248 36.6253 26.1947 36.3977 25.3338C36.1978 24.5783 35.74 24.1401 35.0922 24.3114C35.0389 24.3255 34.9474 24.3351 34.8593 24.373L34.8596 24.3742ZM15.513 30.774C15.0547 30.8952 14.8171 31.4299 14.9871 32.0727C15.206 32.9001 15.8724 33.641 16.6138 33.8385C16.8214 33.8817 17.0305 33.8105 17.2151 33.7617C17.49 33.689 17.6269 33.56 17.7626 33.3266C17.8058 33.119 17.8379 32.8296 17.741 32.4629C17.5221 31.6355 16.738 30.9258 15.9982 30.7292C15.7906 30.686 15.6976 30.7252 15.513 30.774V30.774Z" fill="white"/>
</g>
<defs>
<clipPath id="clip0">
<rect width="41" height="41" fill="white" transform="translate(0 10.4834) rotate(-14.8146)"/>
</clipPath>
</defs>
</svg>
