<svg width="27" height="27" viewBox="0 0 27 27" fill="none" xmlns="http://www.w3.org/2000/svg">
<path d="M21.9375 11.8125C21.9374 9.79173 21.3326 7.81722 20.2009 6.14304C19.0693 4.46886 17.4626 3.1716 15.5875 2.41818C13.7124 1.66476 11.6548 1.48966 9.67939 1.91539C7.70397 2.34112 5.90114 3.34822 4.50286 4.80709C3.10458 6.26597 2.17482 8.10988 1.83322 10.1016C1.49162 12.0933 1.75381 14.1416 2.58605 15.983C3.41828 17.8245 4.7825 19.3748 6.50315 20.4344C8.2238 21.4941 10.2222 22.0146 12.2411 21.9291C12.0498 21.3858 11.9213 20.8225 11.8581 20.25H11.8125C10.1437 20.25 8.51242 19.7551 7.12488 18.828C5.73734 17.9009 4.65589 16.5831 4.01727 15.0414C3.37866 13.4996 3.21157 11.8031 3.53713 10.1664C3.86269 8.52971 4.66629 7.02629 5.84629 5.84628C7.0263 4.66628 8.52972 3.86268 10.1664 3.53712C11.8031 3.21156 13.4996 3.37865 15.0414 4.01726C16.5831 4.65588 17.9009 5.73733 18.828 7.12487C19.7552 8.51241 20.25 10.1437 20.25 11.8125V11.8581C20.8322 11.9239 21.3941 12.0538 21.9291 12.2411C21.9341 12.0994 21.9375 11.9559 21.9375 11.8125Z" fill="#FFFCF2"/>
<path d="M12.0015 17.7154C12.1433 17.0944 12.3593 16.5021 12.6428 15.9502C11.9221 16.0961 11.1758 16.0506 10.4782 15.8182C9.78063 15.5857 9.15615 15.1745 8.66701 14.6256C8.51551 14.4684 8.30901 14.3761 8.09089 14.368C7.87277 14.3599 7.65999 14.4367 7.49727 14.5822C7.33454 14.7276 7.23451 14.9305 7.21821 15.1482C7.2019 15.3658 7.27058 15.5813 7.40982 15.7494C7.9844 16.3931 8.69326 16.9027 9.48637 17.2424C10.2795 17.5821 11.1375 17.7436 11.9998 17.7154H12.0015Z" fill="#FFFCF2"/>
<path d="M10.125 10.125C10.125 10.4607 9.99166 10.7826 9.75431 11.0199C9.51696 11.2573 9.19504 11.3906 8.85938 11.3906C8.52371 11.3906 8.20179 11.2573 7.96444 11.0199C7.72709 10.7826 7.59375 10.4607 7.59375 10.125C7.59375 9.78934 7.72709 9.46742 7.96444 9.23007C8.20179 8.99272 8.52371 8.85938 8.85938 8.85938C9.19504 8.85938 9.51696 8.99272 9.75431 9.23007C9.99166 9.46742 10.125 9.78934 10.125 10.125Z" fill="#FFFCF2"/>
<path d="M14.7656 11.3906C15.1013 11.3906 15.4232 11.2573 15.6606 11.0199C15.8979 10.7826 16.0312 10.4607 16.0312 10.125C16.0312 9.78934 15.8979 9.46742 15.6606 9.23007C15.4232 8.99272 15.1013 8.85938 14.7656 8.85938C14.43 8.85938 14.108 8.99272 13.8707 9.23007C13.6333 9.46742 13.5 9.78934 13.5 10.125C13.5 10.4607 13.6333 10.7826 13.8707 11.0199C14.108 11.2573 14.43 11.3906 14.7656 11.3906Z" fill="#FFFCF2"/>
<path d="M25.3125 19.4062C25.3125 20.9727 24.6902 22.475 23.5826 23.5826C22.475 24.6902 20.9727 25.3125 19.4062 25.3125C17.8398 25.3125 16.3375 24.6902 15.2299 23.5826C14.1223 22.475 13.5 20.9727 13.5 19.4062C13.5 17.8398 14.1223 16.3375 15.2299 15.2299C16.3375 14.1223 17.8398 13.5 19.4062 13.5C20.9727 13.5 22.475 14.1223 23.5826 15.2299C24.6902 16.3375 25.3125 17.8398 25.3125 19.4062ZM20.25 16.0312C20.25 15.8075 20.1611 15.5929 20.0029 15.4346C19.8446 15.2764 19.63 15.1875 19.4062 15.1875C19.1825 15.1875 18.9679 15.2764 18.8096 15.4346C18.6514 15.5929 18.5625 15.8075 18.5625 16.0312V18.5625H16.0312C15.8075 18.5625 15.5929 18.6514 15.4346 18.8096C15.2764 18.9679 15.1875 19.1825 15.1875 19.4062C15.1875 19.63 15.2764 19.8446 15.4346 20.0029C15.5929 20.1611 15.8075 20.25 16.0312 20.25H18.5625V22.7812C18.5625 23.005 18.6514 23.2196 18.8096 23.3779C18.9679 23.5361 19.1825 23.625 19.4062 23.625C19.63 23.625 19.8446 23.5361 20.0029 23.3779C20.1611 23.2196 20.25 23.005 20.25 22.7812V20.25H22.7812C23.005 20.25 23.2196 20.1611 23.3779 20.0029C23.5361 19.8446 23.625 19.63 23.625 19.4062C23.625 19.1825 23.5361 18.9679 23.3779 18.8096C23.2196 18.6514 23.005 18.5625 22.7812 18.5625H20.25V16.0312Z" fill="#FFFCF2"/>
</svg>
