<svg width="183" height="142" viewBox="0 0 183 142" fill="none" xmlns="http://www.w3.org/2000/svg">
<g clip-path="url(#clip0)">
<path d="M104.201 69.4337C108.319 69.4337 111.657 66.0984 111.657 61.984C111.657 57.8696 108.319 54.5343 104.201 54.5343C100.083 54.5343 96.745 57.8696 96.745 61.984C96.745 66.0984 100.083 69.4337 104.201 69.4337Z" fill="#E6E6E6"/>
<path d="M122.474 71.5573L114.683 63.7722C115.28 62.844 115.685 61.8055 115.873 60.7182C116.061 59.6308 116.029 58.5168 115.778 57.4421C115.528 56.3674 115.064 55.3539 114.414 54.4616C113.764 53.5694 112.942 52.8165 111.996 52.2476C110.214 51.184 108.097 50.8278 106.065 51.2496C104.032 51.6714 102.233 52.8404 101.022 54.5251C99.9084 56.0856 99.3734 57.9851 99.5093 59.897C99.6452 61.8089 100.443 63.6138 101.767 65.0014C103.09 66.389 104.856 67.2725 106.761 67.5002C108.666 67.7278 110.591 67.2853 112.204 66.2487L119.996 74.0338C120.325 74.3619 120.77 74.5461 121.235 74.546C121.7 74.5459 122.145 74.3614 122.474 74.0331C122.802 73.7048 122.987 73.2596 122.987 72.7953C122.987 72.3311 122.803 71.8858 122.474 71.5573V71.5573ZM111.913 63.4816C110.948 64.4462 109.677 65.0466 108.319 65.1803C106.96 65.314 105.597 64.9729 104.461 64.215C103.326 63.4571 102.489 62.3293 102.093 61.0239C101.696 59.7184 101.765 58.316 102.288 57.0557C102.81 55.7953 103.754 54.755 104.958 54.1119C106.162 53.4688 107.552 53.2628 108.891 53.5289C110.231 53.795 111.436 54.5169 112.302 55.5714C113.168 56.6259 113.642 57.9479 113.642 59.3122C113.643 60.0866 113.49 60.8537 113.194 61.5692C112.897 62.2847 112.462 62.9346 111.913 63.4816V63.4816Z" fill="#3F3D56"/>
<path d="M178.955 83.0407C198.882 105.058 141.119 136.789 94.4447 136.789C47.7707 136.789 15.4797 112.203 9.93401 83.0407C-3.51226 12.331 124.5 -32.6117 94.4447 29.2923C50.6363 119.525 163.263 65.7013 178.955 83.0407Z" fill="#E6E6E6"/>
<path d="M170.015 88.2517C189.941 110.269 132.178 142 85.5041 142C38.8302 142 6.5391 117.414 0.993461 88.2517C-12.4528 17.542 115.559 -27.4007 85.5041 34.5033C41.6958 124.735 154.322 70.9123 170.015 88.2517Z" fill="#3F3D56"/>
<path d="M27.8636 36.63C13.8814 36.0149 3.04024 33.0013 3.18266 29.7694C3.26805 27.8317 7.22515 26.2735 14.0393 25.4946C14.0637 25.4917 14.0884 25.4936 14.112 25.5002C14.1357 25.5069 14.1578 25.5181 14.1771 25.5333C14.1964 25.5485 14.2124 25.5674 14.2244 25.5888C14.2363 25.6103 14.2439 25.6339 14.2467 25.6582C14.2495 25.6826 14.2475 25.7073 14.2407 25.7309C14.2339 25.7545 14.2225 25.7765 14.2071 25.7957C14.1918 25.8148 14.1728 25.8308 14.1512 25.8426C14.1297 25.8544 14.106 25.8618 14.0816 25.8644C7.6627 26.5982 3.62908 28.1008 3.55482 29.7857C3.42602 32.7084 14.5656 35.6724 27.88 36.2581C41.1944 36.8439 52.5516 34.8696 52.6804 31.9469C52.7549 30.2549 48.844 28.3987 42.4736 27.1029C42.4496 27.0981 42.4268 27.0886 42.4064 27.075C42.3861 27.0613 42.3686 27.0438 42.3551 27.0234C42.3415 27.003 42.3321 26.9801 42.3274 26.9561C42.3228 26.932 42.3229 26.9073 42.3277 26.8833C42.3326 26.8593 42.3422 26.8365 42.3559 26.8162C42.3697 26.7959 42.3873 26.7786 42.4077 26.7651C42.4282 26.7516 42.4511 26.7423 42.4752 26.7377C42.4992 26.733 42.524 26.7332 42.548 26.7382C49.3095 28.1136 53.1383 30.0181 53.0525 31.9633C52.9101 35.1953 41.8458 37.2451 27.8636 36.63Z" fill="#539BF5"/>
<path d="M15.4453 37.1713C16.615 39.3914 18.3477 41.2657 20.4701 42.6067C22.5925 43.9476 25.0301 44.7081 27.539 44.8122C30.0479 44.9162 32.5402 44.3601 34.7665 43.1995C36.9928 42.0389 38.875 40.3146 40.2248 38.1989C31.9524 38.3103 23.6801 37.9672 15.4453 37.1713V37.1713Z" fill="#539BF5"/>
<path d="M41.7716 34.2842C42.4756 32.1744 42.6784 29.93 42.3641 27.7284C42.0497 25.5268 41.2269 23.4286 39.9606 21.5997C38.6943 19.7708 37.0194 18.2615 35.0683 17.1912C33.1173 16.121 30.9437 15.5191 28.7196 15.4333C26.4955 15.3475 24.282 15.7801 22.2541 16.6968C20.2263 17.6136 18.4398 18.9893 17.0362 20.7152C15.6325 22.441 14.6501 24.4696 14.1668 26.6404C13.6835 28.8112 13.7125 31.0646 14.2515 33.2223C23.3403 34.7639 32.5909 35.1208 41.7716 34.2842V34.2842Z" fill="#539BF5"/>
<path d="M31.4474 24.6775C32.3732 24.6775 33.1237 23.9276 33.1237 23.0026C33.1237 22.0775 32.3732 21.3276 31.4474 21.3276C30.5215 21.3276 29.771 22.0775 29.771 23.0026C29.771 23.9276 30.5215 24.6775 31.4474 24.6775Z" fill="white"/>
<path d="M22.8197 31.1893C24.3627 31.1893 25.6136 29.9395 25.6136 28.3978C25.6136 26.856 24.3627 25.6062 22.8197 25.6062C21.2766 25.6062 20.0258 26.856 20.0258 28.3978C20.0258 29.9395 21.2766 31.1893 22.8197 31.1893Z" fill="white"/>
<path d="M64.9877 28.4549C66.0164 28.4549 66.8503 27.6217 66.8503 26.5939C66.8503 25.5661 66.0164 24.7329 64.9877 24.7329C63.959 24.7329 63.1251 25.5661 63.1251 26.5939C63.1251 27.6217 63.959 28.4549 64.9877 28.4549Z" fill="#539BF5"/>
<path d="M22.8925 85.4028C23.5097 85.4028 24.0101 84.9029 24.0101 84.2862C24.0101 83.6695 23.5097 83.1696 22.8925 83.1696C22.2753 83.1696 21.7749 83.6695 21.7749 84.2862C21.7749 84.9029 22.2753 85.4028 22.8925 85.4028Z" fill="#E6E6E6"/>
<path d="M101.122 123.74C101.74 123.74 102.24 123.24 102.24 122.624C102.24 122.007 101.74 121.507 101.122 121.507C100.505 121.507 100.005 122.007 100.005 122.624C100.005 123.24 100.505 123.74 101.122 123.74Z" fill="#E6E6E6"/>
<path d="M28.294 63.8148C28.6026 63.8148 28.8528 63.5648 28.8528 63.2564C28.8528 62.9481 28.6026 62.6981 28.294 62.6981C27.9854 62.6981 27.7352 62.9481 27.7352 63.2564C27.7352 63.5648 27.9854 63.8148 28.294 63.8148Z" fill="#E6E6E6"/>
<path d="M74.487 105.502C74.7956 105.502 75.0458 105.252 75.0458 104.944C75.0458 104.635 74.7956 104.385 74.487 104.385C74.1784 104.385 73.9282 104.635 73.9282 104.944C73.9282 105.252 74.1784 105.502 74.487 105.502Z" fill="#E6E6E6"/>
<path d="M158.491 100.105C158.8 100.105 159.05 99.8551 159.05 99.5467C159.05 99.2384 158.8 98.9884 158.491 98.9884C158.183 98.9884 157.932 99.2384 157.932 99.5467C157.932 99.8551 158.183 100.105 158.491 100.105Z" fill="#E6E6E6"/>
<path d="M132.228 116.668C132.537 116.668 132.787 116.418 132.787 116.11C132.787 115.802 132.537 115.552 132.228 115.552C131.92 115.552 131.669 115.802 131.669 116.11C131.669 116.418 131.92 116.668 132.228 116.668Z" fill="#E6E6E6"/>
<path d="M104.848 96.569C105.156 96.569 105.407 96.3191 105.407 96.0107C105.407 95.7024 105.156 95.4524 104.848 95.4524C104.539 95.4524 104.289 95.7024 104.289 96.0107C104.289 96.3191 104.539 96.569 104.848 96.569Z" fill="#E6E6E6"/>
<path d="M69.458 41.4822C69.7666 41.4822 70.0168 41.2323 70.0168 40.9239C70.0168 40.6156 69.7666 40.3656 69.458 40.3656C69.1494 40.3656 68.8992 40.6156 68.8992 40.9239C68.8992 41.2323 69.1494 41.4822 69.458 41.4822Z" fill="#E6E6E6"/>
<path d="M73.9282 13.9389C74.2368 13.9389 74.487 13.6889 74.487 13.3806C74.487 13.0722 74.2368 12.8223 73.9282 12.8223C73.6196 12.8223 73.3694 13.0722 73.3694 13.3806C73.3694 13.6889 73.6196 13.9389 73.9282 13.9389Z" fill="#E6E6E6"/>
<path d="M71.3205 129.882C71.6291 129.882 71.8793 129.632 71.8793 129.323C71.8793 129.015 71.6291 128.765 71.3205 128.765C71.0119 128.765 70.7617 129.015 70.7617 129.323C70.7617 129.632 71.0119 129.882 71.3205 129.882Z" fill="#E6E6E6"/>
<path d="M43.7537 118.157C44.0624 118.157 44.3125 117.907 44.3125 117.599C44.3125 117.29 44.0624 117.041 43.7537 117.041C43.4451 117.041 43.1949 117.29 43.1949 117.599C43.1949 117.907 43.4451 118.157 43.7537 118.157Z" fill="#E6E6E6"/>
<path d="M131.111 98.0579C131.419 98.0579 131.669 97.808 131.669 97.4996C131.669 97.1913 131.419 96.9413 131.111 96.9413C130.802 96.9413 130.552 97.1913 130.552 97.4996C130.552 97.808 130.802 98.0579 131.111 98.0579Z" fill="#E6E6E6"/>
<path d="M27.6364 43.5109C28.5623 43.5109 29.3128 42.761 29.3128 41.8359C29.3128 40.9109 28.5623 40.161 27.6364 40.161C26.7106 40.161 25.9601 40.9109 25.9601 41.8359C25.9601 42.761 26.7106 43.5109 27.6364 43.5109Z" fill="white"/>
<path d="M65.5465 67.5369C65.5465 72.5394 57.8056 84.1962 55.5434 87.4959C55.4751 87.5957 55.3835 87.6773 55.2766 87.7337C55.1696 87.7901 55.0505 87.8195 54.9296 87.8195C54.8086 87.8195 54.6895 87.7901 54.5825 87.7337C54.4756 87.6773 54.384 87.5957 54.3158 87.4959C52.0536 84.1962 44.3126 72.5394 44.3126 67.5369C44.3126 66.1438 44.5872 64.7644 45.1208 63.4774C45.6543 62.1904 46.4364 61.021 47.4222 60.0359C48.4081 59.0509 49.5785 58.2695 50.8666 57.7364C52.1547 57.2033 53.5353 56.929 54.9296 56.929C56.3238 56.929 57.7044 57.2033 58.9925 57.7364C60.2806 58.2695 61.451 59.0509 62.4369 60.0359C63.4227 61.021 64.2048 62.1904 64.7383 63.4774C65.2719 64.7644 65.5465 66.1438 65.5465 67.5369V67.5369Z" fill="white"/>
<path d="M54.9296 72.1894C57.9128 72.1894 60.3311 69.7731 60.3311 66.7924C60.3311 63.8117 57.9128 61.3954 54.9296 61.3954C51.9463 61.3954 49.528 63.8117 49.528 66.7924C49.528 69.7731 51.9463 72.1894 54.9296 72.1894Z" fill="#539BF5"/>
<path d="M54.8365 93.5915C58.2826 93.5915 61.0762 93.0499 61.0762 92.3818C61.0762 91.7137 58.2826 91.1721 54.8365 91.1721C51.3903 91.1721 48.5967 91.7137 48.5967 92.3818C48.5967 93.0499 51.3903 93.5915 54.8365 93.5915Z" fill="white"/>
<path d="M152.149 59.166C152.101 59.2576 152.061 59.3527 152.029 59.4505L143.129 61.9214L141.525 60.3531L138.84 62.4623L141.409 65.5142C141.617 65.7608 141.899 65.9334 142.213 66.0062C142.527 66.079 142.856 66.048 143.151 65.9179L152.766 61.6775C153.092 61.9037 153.479 62.0254 153.876 62.0262C154.273 62.0271 154.661 61.9072 154.988 61.6824C155.315 61.4576 155.566 61.1387 155.708 60.7679C155.849 60.3972 155.874 59.9923 155.779 59.607C155.685 59.2217 155.475 58.8744 155.178 58.6111C154.881 58.3479 154.511 58.1813 154.116 58.1334C153.722 58.0855 153.323 58.1587 152.971 58.3432C152.62 58.5276 152.333 58.8146 152.149 59.166H152.149Z" fill="#FFB8B8"/>
<path d="M142.815 62.0663L139.475 64.6642C139.38 64.7381 139.27 64.7907 139.153 64.8184C139.035 64.846 138.914 64.8481 138.796 64.8245C138.677 64.8009 138.566 64.7521 138.468 64.6815C138.371 64.6109 138.29 64.5201 138.23 64.4153L136.154 60.744C135.778 60.256 135.611 59.6389 135.69 59.0282C135.769 58.4174 136.087 57.8628 136.575 57.486C137.062 57.1092 137.679 56.9409 138.291 57.0181C138.902 57.0953 139.458 57.4116 139.836 57.8977L142.88 60.7997C142.967 60.8828 143.035 60.9837 143.079 61.0956C143.124 61.2074 143.144 61.3275 143.138 61.4476C143.132 61.5678 143.1 61.6853 143.044 61.7921C142.989 61.8988 142.911 61.9923 142.815 62.0663V62.0663Z" fill="#539BF5"/>
<path d="M153.002 57.9373L156.39 59.4602C156.532 59.524 156.642 59.6415 156.698 59.7868C156.753 59.9321 156.748 60.0934 156.684 60.2351L156.283 61.1259C156.33 61.1473 156.367 61.1864 156.385 61.2348C156.404 61.2832 156.402 61.3369 156.381 61.3842L156.221 61.7405C156.199 61.7876 156.16 61.8244 156.112 61.8427C156.063 61.8611 156.009 61.8596 155.962 61.8385L155.802 62.1948C155.849 62.2162 155.886 62.2553 155.904 62.3037C155.922 62.3521 155.921 62.4058 155.9 62.4531L155.739 62.8094C155.718 62.8565 155.679 62.8933 155.63 62.9117C155.582 62.93 155.528 62.9285 155.481 62.9074L153.315 67.7175C153.251 67.8592 153.133 67.9698 152.988 68.025C152.843 68.0801 152.681 68.0752 152.539 68.0115L149.152 66.4886C149.01 66.4248 148.899 66.3074 148.844 66.162C148.789 66.0167 148.793 65.8554 148.857 65.7137L152.226 58.2313C152.29 58.0896 152.408 57.979 152.553 57.9239C152.699 57.8687 152.86 57.8736 153.002 57.9373V57.9373Z" fill="#3F3D56"/>
<path d="M149.767 66.0147L152.484 67.2376C152.621 67.2984 152.775 67.303 152.915 67.2503C153.054 67.1976 153.168 67.0919 153.229 66.9563L154.485 64.1667L154.921 63.1997L156.057 60.6757C156.117 60.5399 156.122 60.3856 156.069 60.2466C156.016 60.1075 155.911 59.9949 155.775 59.9334L154.921 59.5486L153.055 58.7105C152.919 58.6498 152.765 58.6455 152.625 58.6986C152.486 58.7517 152.373 58.8578 152.312 58.9938L151.214 61.4337L149.962 64.2116L149.485 65.2724C149.424 65.4081 149.42 65.5625 149.473 65.7016C149.525 65.8407 149.631 65.9533 149.767 66.0147V66.0147Z" fill="#F2F2F2"/>
<path d="M144.088 100.579L146.372 100.578L147.458 91.778L144.088 91.7781L144.088 100.579Z" fill="#FFB8B8"/>
<path d="M143.506 99.8337L148.003 99.8335H148.003C148.379 99.8335 148.752 99.9075 149.1 100.051C149.447 100.195 149.763 100.406 150.029 100.672C150.296 100.938 150.507 101.254 150.651 101.601C150.795 101.949 150.869 102.321 150.869 102.697V102.79L143.506 102.79L143.506 99.8337Z" fill="#2F2E41"/>
<path d="M150.048 100.02L152.332 100.02L153.418 91.2196L150.048 91.2198L150.048 100.02Z" fill="#FFB8B8"/>
<path d="M149.466 99.2755L153.963 99.2753H153.963C154.34 99.2753 154.712 99.3493 155.06 99.4932C155.408 99.6371 155.724 99.848 155.99 100.114C156.256 100.38 156.467 100.695 156.611 101.043C156.755 101.39 156.829 101.763 156.829 102.139V102.232L149.466 102.232L149.466 99.2755Z" fill="#2F2E41"/>
<path d="M133.845 79.9276C134.332 81.3686 135.254 82.6228 136.486 83.5167C137.717 84.4106 139.196 84.9 140.718 84.9171L140.834 84.9189C142.013 84.9524 143.397 84.5728 144.754 84.0275C147.437 82.95 150.013 81.2248 150.696 80.7502L149.538 91.8774L149.068 96.3885C149.056 96.5052 149.069 96.6231 149.106 96.7346C149.142 96.8461 149.202 96.9487 149.28 97.0358C149.359 97.123 149.455 97.1927 149.562 97.2405C149.669 97.2883 149.785 97.3132 149.903 97.3135H152.795C152.981 97.3136 153.161 97.2523 153.308 97.1391C153.455 97.026 153.56 96.8674 153.607 96.6882L158.383 78.5151C158.526 77.9712 158.538 77.401 158.417 76.8517C158.296 76.3024 158.045 75.7898 157.687 75.3564C157.328 74.923 156.871 74.5812 156.354 74.3593C155.836 74.1373 155.274 74.0417 154.712 74.0803L144.792 74.7595L145.485 71.9903L136.63 71.4022L136.604 71.4208C136.391 71.5753 136.185 71.7372 135.987 71.9066C135.493 72.3237 135.056 72.8029 134.685 73.3321C134.022 74.2818 133.599 75.3779 133.453 76.5266C133.306 77.6753 133.441 78.8423 133.845 79.9276Z" fill="#2F2E41"/>
<path d="M133.845 79.9277C134.332 81.3686 135.254 82.6229 136.486 83.5168C137.717 84.4107 139.196 84.9 140.718 84.9171C142.174 84.1812 143.578 83.3487 144.922 82.4252L144.754 84.0275L143.294 98.0635C143.282 98.1802 143.295 98.2981 143.332 98.4096C143.368 98.5211 143.427 98.6237 143.506 98.7108C143.585 98.798 143.681 98.8677 143.788 98.9155C143.895 98.9633 144.011 98.9882 144.129 98.9884H147.021C147.207 98.9886 147.387 98.9272 147.534 98.8141C147.681 98.701 147.786 98.5424 147.833 98.3631L149.538 91.8774L152.609 80.1901C152.752 79.6461 152.764 79.0759 152.643 78.5266C152.522 77.9774 152.271 77.4648 151.912 77.0314C151.554 76.598 151.097 76.2562 150.579 76.0342C150.062 75.8123 149.499 75.7167 148.938 75.7552L139.018 76.4345L139.71 73.6653L134.685 73.3322C134.022 74.2818 133.599 75.3779 133.453 76.5266C133.306 77.6753 133.441 78.8423 133.845 79.9277V79.9277Z" fill="#2F2E41"/>
<path d="M135.974 72.5486L135.908 72.5406L134.363 64.9503C134.349 64.8844 133.086 58.3374 136.959 54.9147L137.026 54.4463C137.043 54.3264 137.086 54.2117 137.152 54.1101C137.218 54.0084 137.305 53.9223 137.408 53.8576C137.51 53.7929 137.626 53.7511 137.746 53.7353C137.866 53.7194 137.988 53.7297 138.104 53.7656L141.752 54.8961C141.958 54.9597 142.132 55.1006 142.237 55.2894C142.342 55.4782 142.369 55.7002 142.314 55.9089L141.96 57.2566C142.451 57.8335 148.239 64.7961 146.223 70.1602L145.32 73.6872L135.974 72.5486Z" fill="#539BF5"/>
<path d="M151.121 66.6247C151.034 66.6796 150.951 66.7412 150.874 66.809L141.952 64.4161L141.369 62.251L137.984 62.7034L138.643 66.6366C138.697 66.9543 138.852 67.2462 139.085 67.4685C139.319 67.6907 139.618 67.8313 139.938 67.869L150.375 69.1009C150.541 69.4613 150.812 69.7628 151.154 69.9653C151.495 70.1677 151.89 70.2614 152.286 70.2341C152.682 70.2067 153.061 70.0595 153.371 69.812C153.681 69.5645 153.909 69.2285 154.024 68.8486C154.138 68.4688 154.134 68.0631 154.012 67.6855C153.89 67.308 153.656 66.9764 153.341 66.735C153.026 66.4936 152.645 66.3537 152.248 66.334C151.852 66.3143 151.459 66.4157 151.121 66.6247H151.121Z" fill="#FFB8B8"/>
<path d="M141.609 64.3815L137.41 64.9218C137.291 64.9372 137.169 64.9267 137.054 64.8909C136.939 64.8552 136.833 64.7951 136.743 64.7148C136.654 64.6345 136.582 64.5358 136.534 64.4254C136.486 64.3151 136.463 64.1957 136.465 64.0754L136.545 59.8592C136.47 59.2481 136.64 58.6321 137.019 58.1462C137.397 57.6604 137.953 57.3443 138.565 57.2675C139.176 57.1906 139.793 57.3591 140.28 57.7361C140.768 58.1131 141.086 58.6678 141.164 59.2785L142.308 63.3233C142.341 63.4392 142.348 63.5607 142.33 63.6796C142.311 63.7985 142.267 63.912 142.201 64.0124C142.134 64.1129 142.047 64.1978 141.945 64.2615C141.843 64.3252 141.728 64.3661 141.609 64.3815V64.3815Z" fill="#539BF5"/>
<path d="M140.427 52.7353C142.953 52.7353 145.001 50.6889 145.001 48.1644C145.001 45.64 142.953 43.5935 140.427 43.5935C137.9 43.5935 135.852 45.64 135.852 48.1644C135.852 50.6889 137.9 52.7353 140.427 52.7353Z" fill="#FFB8B8"/>
<path d="M140.186 48.5462L139.613 47.5041C138.528 51.9207 140.445 55.576 140.445 55.576L133.007 52.1143L133.078 50.886L132.342 51.7205L131.284 51.1382L131.145 50.3416L130.346 50.5392L133.26 45.2562C136.088 40.2289 140.199 42.1483 140.199 42.1483C146.74 41.8376 145.941 48.2851 145.941 48.2851L140.186 48.5462Z" fill="#2F2E41"/>
<path d="M88.1095 82.6092C89.1642 81.9335 87.8815 78.054 85.2444 73.9438C82.6074 69.8337 79.6145 67.0495 78.5597 67.7251C77.505 68.4007 78.7877 72.2803 81.4248 76.3904C84.0619 80.5005 87.0547 83.2848 88.1095 82.6092Z" fill="#3F3D56"/>
</g>
<defs>
<clipPath id="clip0">
<rect width="183" height="142" fill="white"/>
</clipPath>
</defs>
</svg>
