<svg width="17" height="21" viewBox="0 0 17 21" fill="none" xmlns="http://www.w3.org/2000/svg">
<path d="M16.8333 10.5C16.8333 10.7762 16.7236 11.0412 16.5282 11.2366C16.3329 11.4319 16.0679 11.5416 15.7917 11.5416H7.88542L10.2813 13.9271C10.3789 14.0239 10.4564 14.1391 10.5093 14.266C10.5621 14.393 10.5894 14.5291 10.5894 14.6666C10.5894 14.8042 10.5621 14.9403 10.5093 15.0672C10.4564 15.1942 10.3789 15.3094 10.2813 15.4062C10.1844 15.5039 10.0692 15.5814 9.94227 15.6342C9.81533 15.6871 9.67918 15.7144 9.54167 15.7144C9.40416 15.7144 9.268 15.6871 9.14107 15.6342C9.01413 15.5814 8.89892 15.5039 8.80208 15.4062L4.63542 11.2396C4.54058 11.1405 4.46625 11.0237 4.41667 10.8958C4.31248 10.6422 4.31248 10.3578 4.41667 10.1041C4.46625 9.97628 4.54058 9.85946 4.63542 9.7604L8.80208 5.59373C8.89921 5.49661 9.01451 5.41956 9.14141 5.367C9.26831 5.31444 9.40431 5.28738 9.54167 5.28738C9.67902 5.28738 9.81503 5.31444 9.94193 5.367C10.0688 5.41956 10.1841 5.49661 10.2813 5.59373C10.3784 5.69085 10.4554 5.80616 10.508 5.93305C10.5605 6.05995 10.5876 6.19596 10.5876 6.33331C10.5876 6.47067 10.5605 6.60668 10.508 6.73357C10.4554 6.86047 10.3784 6.97577 10.2813 7.0729L7.88542 9.45831H15.7917C16.0679 9.45831 16.3329 9.56806 16.5282 9.76341C16.7236 9.95876 16.8333 10.2237 16.8333 10.5ZM3.29167 0.083313H13.7083C14.5371 0.083313 15.332 0.412553 15.918 0.998604C16.5041 1.58466 16.8333 2.37951 16.8333 3.20831V6.33331C16.8333 6.60958 16.7236 6.87453 16.5282 7.06988C16.3329 7.26523 16.0679 7.37498 15.7917 7.37498C15.5154 7.37498 15.2504 7.26523 15.0551 7.06988C14.8597 6.87453 14.75 6.60958 14.75 6.33331V3.20831C14.75 2.93205 14.6403 2.66709 14.4449 2.47174C14.2496 2.27639 13.9846 2.16665 13.7083 2.16665H3.29167C3.0154 2.16665 2.75045 2.27639 2.5551 2.47174C2.35975 2.66709 2.25 2.93205 2.25 3.20831V17.7916C2.25 18.0679 2.35975 18.3329 2.5551 18.5282C2.75045 18.7236 3.0154 18.8333 3.29167 18.8333H13.7083C13.9846 18.8333 14.2496 18.7236 14.4449 18.5282C14.6403 18.3329 14.75 18.0679 14.75 17.7916V14.6666C14.75 14.3904 14.8597 14.1254 15.0551 13.9301C15.2504 13.7347 15.5154 13.625 15.7917 13.625C16.0679 13.625 16.3329 13.7347 16.5282 13.9301C16.7236 14.1254 16.8333 14.3904 16.8333 14.6666V17.7916C16.8333 18.6204 16.5041 19.4153 15.918 20.0014C15.332 20.5874 14.5371 20.9166 13.7083 20.9166H3.29167C2.46287 20.9166 1.66801 20.5874 1.08196 20.0014C0.495908 19.4153 0.166669 18.6204 0.166669 17.7916V3.20831C0.166669 2.37951 0.495908 1.58466 1.08196 0.998604C1.66801 0.412553 2.46287 0.083313 3.29167 0.083313Z" fill="#252422"/>
</svg>
