<svg width="29" height="29" viewBox="0 0 29 29" fill="none" xmlns="http://www.w3.org/2000/svg">
<path d="M22.6562 4.23038C23.172 4.23038 23.6826 4.33195 24.1591 4.52931C24.6355 4.72666 25.0684 5.01593 25.4331 5.38059C25.7978 5.74526 26.087 6.17817 26.2844 6.65463C26.4817 7.13109 26.5833 7.64175 26.5833 8.15746V20.8486C26.5833 21.3643 26.4817 21.875 26.2844 22.3514C26.087 22.8279 25.7978 23.2608 25.4331 23.6255C25.0684 23.9901 24.6355 24.2794 24.1591 24.4767C23.6826 24.6741 23.172 24.7757 22.6562 24.7757H6.34374C5.30221 24.7757 4.30334 24.3619 3.56687 23.6255C2.8304 22.889 2.41666 21.8901 2.41666 20.8486V8.15625C2.41666 7.11472 2.8304 6.11585 3.56687 5.37938C4.30334 4.64291 5.30221 4.22917 6.34374 4.22917H22.6562V4.23038ZM22.6562 6.04288H6.34374C5.78292 6.04288 5.24507 6.26566 4.8485 6.66222C4.45194 7.05878 4.22916 7.59664 4.22916 8.15746V20.8486C4.22916 22.0158 5.17649 22.9632 6.34374 22.9632H22.6562C23.2171 22.9632 23.7549 22.7404 24.1515 22.3438C24.548 21.9473 24.7708 21.4094 24.7708 20.8486V8.15625C24.7708 7.59543 24.548 7.05758 24.1515 6.66102C23.7549 6.26445 23.2171 6.04167 22.6562 6.04167V6.04288ZM9.68478 10.7203C10.4049 10.7203 10.9161 10.8194 11.4997 11.0998C11.5891 11.1427 11.6692 11.2028 11.7354 11.2767C11.8016 11.3505 11.8526 11.4367 11.8854 11.5303C11.9183 11.6239 11.9324 11.723 11.927 11.8221C11.9216 11.9211 11.8967 12.0181 11.8537 12.1075C11.8108 12.1969 11.7507 12.277 11.6768 12.3432C11.603 12.4094 11.5168 12.4604 11.4232 12.4932C11.3296 12.5261 11.2305 12.5402 11.1314 12.5348C11.0324 12.5294 10.9354 12.5045 10.846 12.4615C10.4835 12.2875 10.1935 12.232 9.68478 12.232C8.63716 12.232 7.86745 13.1938 7.86745 14.494C7.86745 15.7953 8.63837 16.7608 9.68478 16.7608C10.2019 16.7608 10.6406 16.5433 10.8689 16.1554L10.875 16.1373V15.2504H10.4207C10.2398 15.2504 10.065 15.1855 9.92801 15.0675C9.79097 14.9496 9.70081 14.7863 9.67391 14.6075L9.66666 14.4964C9.66666 14.117 9.94578 13.8028 10.3107 13.7484L10.4219 13.7412H11.6326C12.012 13.7412 12.325 14.0191 12.3794 14.384L12.3878 14.4964L12.3854 16.3657L12.3782 16.4333L12.3528 16.5421L12.3286 16.6085C11.8731 17.684 10.8291 18.2712 9.68478 18.2712C7.72003 18.2712 6.35703 16.5638 6.35703 14.494C6.35703 12.4241 7.71882 10.7203 9.68478 10.7203ZM15.26 10.8678C15.6394 10.8678 15.9536 11.1481 16.0068 11.5118L16.0152 11.623V17.3783C16.0149 17.5686 15.9426 17.7518 15.8129 17.8912C15.6832 18.0306 15.5056 18.1158 15.3158 18.1299C15.1259 18.1439 14.9378 18.0857 14.789 17.967C14.6402 17.8482 14.5417 17.6777 14.5133 17.4894L14.5048 17.3783V11.623C14.5048 11.2061 14.8432 10.8678 15.26 10.8678ZM18.8802 10.8678L21.2932 10.8762C21.4846 10.8757 21.6691 10.9479 21.8093 11.0782C21.9495 11.2085 22.035 11.3872 22.0485 11.5781C22.062 11.7691 22.0025 11.958 21.8821 12.1067C21.7616 12.2555 21.5891 12.3529 21.3996 12.3794L21.2884 12.3866L19.6318 12.3806V14.5H20.9887C21.3682 14.5 21.6823 14.7803 21.7355 15.1453L21.7439 15.2564C21.7439 15.4374 21.6788 15.6124 21.5606 15.7494C21.4424 15.8865 21.2789 15.9765 21.0999 16.0032L20.9887 16.0116L19.6318 16.0104V17.3577C19.6321 17.5387 19.5673 17.7138 19.4493 17.8511C19.3313 17.9884 19.168 18.0787 18.9889 18.1057L18.8778 18.1129C18.6968 18.1132 18.5217 18.0484 18.3844 17.9305C18.2471 17.8125 18.1568 17.6491 18.1298 17.4701L18.1226 17.3577V11.6205C18.1233 11.4398 18.1887 11.2653 18.3071 11.1287C18.4255 10.9921 18.589 10.9025 18.7678 10.8762L18.8802 10.8678Z" fill="#FFFCF2"/>
</svg>
