<svg width="29" height="29" viewBox="0 0 29 29" fill="none" xmlns="http://www.w3.org/2000/svg">
<path d="M12.6875 16.095C12.9879 16.095 13.2761 16.2143 13.4885 16.4268C13.701 16.6392 13.8203 16.9274 13.8203 17.2278C13.8203 17.5283 13.701 17.8164 13.4885 18.0288C13.2761 18.2413 12.9879 18.3606 12.6875 18.3606C12.3871 18.3606 12.0989 18.2413 11.8865 18.0288C11.674 17.8164 11.5547 17.5283 11.5547 17.2278C11.5547 16.9274 11.674 16.6392 11.8865 16.4268C12.0989 16.2143 12.3871 16.095 12.6875 16.095V16.095ZM12.6875 7.25544C14.5562 7.25544 16.0461 8.78881 16.0461 10.7898C16.0461 11.8519 15.6582 12.4356 14.7284 13.1787L14.2263 13.5684C13.7804 13.92 13.63 14.1121 13.5992 14.3804L13.5793 14.6631C13.5389 14.886 13.4166 15.0856 13.2364 15.2228C13.0562 15.3599 12.8312 15.4247 12.6056 15.4042C12.3801 15.3837 12.1704 15.2796 12.0178 15.1122C11.8652 14.9449 11.7808 14.7265 11.7813 14.5C11.7813 13.4669 12.1619 12.8977 13.079 12.1655L13.5829 11.7758C14.1049 11.3589 14.2354 11.1559 14.2354 10.7898C14.2354 9.77844 13.543 9.06794 12.6875 9.06794C11.7921 9.06794 11.1306 9.73131 11.1414 10.7807C11.1438 11.0211 11.0507 11.2526 10.8824 11.4242C10.7991 11.5092 10.6999 11.577 10.5904 11.6236C10.4809 11.6703 10.3633 11.6949 10.2443 11.6961C10.0039 11.6985 9.77244 11.6053 9.60079 11.437C9.42913 11.2688 9.33135 11.0392 9.32895 10.7989C9.30901 8.73625 10.788 7.25544 12.6875 7.25544V7.25544ZM3.62501 12.6875C3.62575 10.7264 4.26259 8.81852 5.43992 7.2502C6.61726 5.68187 8.27155 4.53776 10.1545 3.98962C12.0374 3.44148 14.0473 3.51891 15.8824 4.21026C17.7176 4.90162 19.2789 6.1696 20.3321 7.82384C21.3853 9.47809 21.8735 11.4293 21.7234 13.3846C21.5733 15.34 20.793 17.1938 19.4996 18.6679C18.2062 20.142 16.4696 21.1568 14.5504 21.5599C12.6312 21.963 10.633 21.7327 8.85588 20.9036L4.70888 21.7319C4.56269 21.761 4.41158 21.7536 4.26894 21.7103C4.1263 21.6671 3.99653 21.5893 3.89113 21.4839C3.78573 21.3785 3.70795 21.2487 3.66469 21.1061C3.62144 20.9634 3.61403 20.8123 3.64313 20.6661L4.47145 16.5173C3.91216 15.3181 3.6232 14.0107 3.62501 12.6875V12.6875ZM12.6875 5.4375C11.4465 5.43718 10.2262 5.75542 9.14346 6.36174C8.06069 6.96805 7.15167 7.84216 6.50343 8.90037C5.85519 9.95858 5.48943 11.1655 5.44116 12.4055C5.39289 13.6456 5.66373 14.8772 6.22776 15.9826C6.32084 16.1647 6.34959 16.373 6.30932 16.5735L5.68582 19.6892L8.80151 19.0657C9.00203 19.0254 9.21027 19.0542 9.39238 19.1472C10.3688 19.6448 11.4453 19.9145 12.541 19.9361C13.6367 19.9577 14.723 19.7306 15.7183 19.2719C16.7136 18.8133 17.5919 18.1349 18.2873 17.2879C18.9827 16.4409 19.4771 15.4473 19.7332 14.3818C19.9893 13.3162 20.0005 12.2065 19.7659 11.136C19.5314 10.0655 19.0573 9.06208 18.3791 8.20121C17.701 7.34033 16.8365 6.64439 15.8507 6.16571C14.8649 5.68702 13.7834 5.43804 12.6875 5.4375ZM10.6213 23.3667C12.2317 24.6693 14.2412 25.3784 16.3125 25.375C17.6791 25.375 18.9769 25.0723 20.1423 24.5286L24.2911 25.3569C24.4373 25.386 24.5884 25.3786 24.7311 25.3353C24.8737 25.2921 25.0035 25.2143 25.1089 25.1089C25.2143 25.0035 25.2921 24.8737 25.3353 24.7311C25.3786 24.5884 25.386 24.4373 25.3569 24.2911L24.5286 20.1441C25.0723 18.9787 25.375 17.6791 25.375 16.3125C25.375 14.1574 24.6228 12.18 23.3668 10.6231C23.625 11.9649 23.6293 13.3433 23.3794 14.6867C23.7595 16.3475 23.5446 18.089 22.7723 19.6076C22.6792 19.7897 22.6504 19.998 22.6907 20.1985L23.3142 23.3142L20.1967 22.6907C19.9968 22.6508 19.7892 22.6796 19.6076 22.7722C18.0887 23.5458 16.3462 23.7607 14.6849 23.3794C13.3415 23.6292 11.9631 23.6249 10.6213 23.3667V23.3667Z" fill="black"/>
</svg>
