<svg width="25" height="25" viewBox="0 0 25 25" fill="none" xmlns="http://www.w3.org/2000/svg">
<path d="M21.6485 3.35156C21.543 3.24662 21.4098 3.17396 21.2645 3.14213C21.1192 3.1103 20.9678 3.12062 20.8282 3.17187L3.64066 9.42187C3.49243 9.4781 3.36481 9.57809 3.27476 9.70856C3.1847 9.83903 3.13647 9.99381 3.13647 10.1523C3.13647 10.3109 3.1847 10.4657 3.27476 10.5961C3.36481 10.7266 3.49243 10.8266 3.64066 10.8828L10.3516 13.5625L15.3047 8.59375L16.4063 9.69531L11.4297 14.6719L14.1172 21.3828C14.1751 21.5282 14.2753 21.6528 14.4049 21.7406C14.5344 21.8283 14.6873 21.8752 14.8438 21.875C15.0017 21.8718 15.1549 21.8208 15.2832 21.7287C15.4115 21.6367 15.5089 21.5079 15.5625 21.3594L21.8125 4.17187C21.8658 4.03365 21.8786 3.88315 21.8496 3.73791C21.8205 3.59267 21.7508 3.45868 21.6485 3.35156Z" fill="black"/>
</svg>
