<svg width="18" height="18" viewBox="0 0 18 18" fill="none" xmlns="http://www.w3.org/2000/svg">
<path fill-rule="evenodd" clip-rule="evenodd" d="M9 1.79999C9.2387 1.79999 9.46762 1.89481 9.6364 2.06359C9.80518 2.23237 9.9 2.46129 9.9 2.69999V3.59999C9.9 3.83868 9.80518 4.0676 9.6364 4.23638C9.46762 4.40517 9.2387 4.49999 9 4.49999C8.76131 4.49999 8.53239 4.40517 8.36361 4.23638C8.19482 4.0676 8.1 3.83868 8.1 3.59999V2.69999C8.1 2.46129 8.19482 2.23237 8.36361 2.06359C8.53239 1.89481 8.76131 1.79999 9 1.79999V1.79999ZM12.6 8.99999C12.6 9.95477 12.2207 10.8704 11.5456 11.5456C10.8705 12.2207 9.95478 12.6 9 12.6C8.04522 12.6 7.12955 12.2207 6.45442 11.5456C5.77929 10.8704 5.4 9.95477 5.4 8.99999C5.4 8.04521 5.77929 7.12953 6.45442 6.4544C7.12955 5.77927 8.04522 5.39999 9 5.39999C9.95478 5.39999 10.8705 5.77927 11.5456 6.4544C12.2207 7.12953 12.6 8.04521 12.6 8.99999V8.99999ZM12.1824 13.455L12.8187 14.0913C12.9884 14.2552 13.2158 14.3459 13.4518 14.3439C13.6877 14.3418 13.9135 14.2472 14.0803 14.0803C14.2472 13.9135 14.3419 13.6877 14.3439 13.4517C14.346 13.2158 14.2552 12.9884 14.0913 12.8187L13.455 12.1824C13.2853 12.0184 13.0579 11.9277 12.8219 11.9298C12.586 11.9318 12.3602 12.0265 12.1934 12.1934C12.0265 12.3602 11.9318 12.586 11.9298 12.8219C11.9277 13.0579 12.0185 13.2852 12.1824 13.455V13.455ZM14.0904 3.90869C14.2591 4.07746 14.3539 4.30634 14.3539 4.54499C14.3539 4.78364 14.2591 5.01251 14.0904 5.18129L13.455 5.81759C13.372 5.90355 13.2727 5.97211 13.1629 6.01928C13.0531 6.06645 12.935 6.09127 12.8155 6.09231C12.696 6.09335 12.5775 6.07058 12.4668 6.02533C12.3562 5.98007 12.2558 5.91325 12.1712 5.82874C12.0867 5.74424 12.0199 5.64375 11.9747 5.53315C11.9294 5.42254 11.9066 5.30403 11.9077 5.18453C11.9087 5.06503 11.9335 4.94693 11.9807 4.83712C12.0279 4.72732 12.0964 4.62801 12.1824 4.54499L12.8187 3.90869C12.9875 3.73996 13.2164 3.64518 13.455 3.64518C13.6937 3.64518 13.9225 3.73996 14.0913 3.90869H14.0904ZM15.3 9.89999C15.5387 9.89999 15.7676 9.80517 15.9364 9.63638C16.1052 9.4676 16.2 9.23868 16.2 8.99999C16.2 8.76129 16.1052 8.53237 15.9364 8.36359C15.7676 8.19481 15.5387 8.09999 15.3 8.09999H14.4C14.1613 8.09999 13.9324 8.19481 13.7636 8.36359C13.5948 8.53237 13.5 8.76129 13.5 8.99999C13.5 9.23868 13.5948 9.4676 13.7636 9.63638C13.9324 9.80517 14.1613 9.89999 14.4 9.89999H15.3ZM9 13.5C9.2387 13.5 9.46762 13.5948 9.6364 13.7636C9.80518 13.9324 9.9 14.1613 9.9 14.4V15.3C9.9 15.5387 9.80518 15.7676 9.6364 15.9364C9.46762 16.1052 9.2387 16.2 9 16.2C8.76131 16.2 8.53239 16.1052 8.36361 15.9364C8.19482 15.7676 8.1 15.5387 8.1 15.3V14.4C8.1 14.1613 8.19482 13.9324 8.36361 13.7636C8.53239 13.5948 8.76131 13.5 9 13.5V13.5ZM4.545 5.81759C4.62856 5.90121 4.72778 5.96755 4.83697 6.01283C4.94617 6.0581 5.06322 6.08143 5.18143 6.08147C5.29965 6.08151 5.41671 6.05827 5.52594 6.01307C5.63518 5.96787 5.73443 5.9016 5.81805 5.81804C5.90167 5.73448 5.96801 5.63527 6.01329 5.52607C6.05857 5.41687 6.08189 5.29982 6.08194 5.18161C6.08198 5.06339 6.05873 4.94633 6.01354 4.8371C5.96834 4.72787 5.90206 4.62861 5.8185 4.54499L5.1813 3.90869C5.01156 3.74475 4.78422 3.65403 4.54824 3.65608C4.31227 3.65813 4.08653 3.75278 3.91967 3.91965C3.7528 4.08652 3.65815 4.31225 3.6561 4.54823C3.65405 4.7842 3.74476 5.01155 3.9087 5.18129L4.545 5.81759V5.81759ZM5.8176 13.455L5.1813 14.0913C5.01156 14.2552 4.78422 14.3459 4.54824 14.3439C4.31227 14.3418 4.08653 14.2472 3.91967 14.0803C3.7528 13.9135 3.65815 13.6877 3.6561 13.4517C3.65405 13.2158 3.74476 12.9884 3.9087 12.8187L4.545 12.1824C4.71475 12.0184 4.94209 11.9277 5.17806 11.9298C5.41404 11.9318 5.63977 12.0265 5.80664 12.1934C5.97351 12.3602 6.06816 12.586 6.07021 12.8219C6.07226 13.0579 5.98155 13.2852 5.8176 13.455V13.455ZM3.6 9.89999C3.8387 9.89999 4.06762 9.80517 4.2364 9.63638C4.40518 9.4676 4.5 9.23868 4.5 8.99999C4.5 8.76129 4.40518 8.53237 4.2364 8.36359C4.06762 8.19481 3.8387 8.09999 3.6 8.09999H2.7C2.46131 8.09999 2.23239 8.19481 2.06361 8.36359C1.89482 8.53237 1.8 8.76129 1.8 8.99999C1.8 9.23868 1.89482 9.4676 2.06361 9.63638C2.23239 9.80517 2.46131 9.89999 2.7 9.89999H3.6Z" fill="black"/>
</svg>
